<svg xmlns="http://www.w3.org/2000/svg" xmlns:xlink="http://www.w3.org/1999/xlink" version="1.1" x="0px" y="0px" viewBox="0 0 100 125" enable-background="new 0 0 100 100" xml:space="preserve"><g><path fill="#000000" d="M50.02,85.502c-3.441,0-6.825-1.397-9.251-3.801s-3.808-5.757-3.808-9.139s1.382-6.736,3.808-9.14   s5.81-3.773,9.251-3.773c3.413,0,6.768,1.37,9.194,3.773s3.836,5.758,3.836,9.14s-1.41,6.735-3.836,9.139   S53.433,85.502,50.02,85.502L50.02,85.502z M50.02,83.938c2.989,0,5.951-1.258,8.066-3.354c2.115-2.067,3.356-5.059,3.356-8.021   c0-2.963-1.241-5.926-3.356-8.021c-2.115-2.097-5.077-3.326-8.066-3.326c-2.99,0-6.007,1.229-8.123,3.326   c-2.115,2.096-3.356,5.059-3.356,8.021c0,2.962,1.241,5.953,3.356,8.021C44.013,82.68,47.03,83.938,50.02,83.938L50.02,83.938z    M28.331,62.165c-1.269,0-2.538-0.475-3.525-1.453l-7.925-7.993c-1.946-1.958-1.721-4.919-0.084-6.988   c0.028-0.028,0.056-0.056,0.084-0.056l21.604-21.716l7.954-7.993c1.918-1.957,5.104-1.957,7.05,0l7.926,7.993l21.632,21.716   c1.946,1.957,1.946,5.086,0,7.044l-7.953,7.993c-0.931,0.95-2.2,1.397-3.44,1.426c-0.028,0-0.057,0.027-0.085,0.027   c-1.27,0-2.566-0.475-3.525-1.453L49.963,42.517L31.885,60.712C30.897,61.69,29.628,62.165,28.331,62.165L28.331,62.165z    M28.331,60.6c0.875,0,1.721-0.335,2.397-1.006l18.671-18.726c0.282-0.307,0.846-0.307,1.128,0l18.67,18.726   c0.648,0.671,1.522,0.979,2.369,0.979c0.874,0,1.721-0.308,2.397-0.979l7.925-7.993c1.354-1.342,1.354-3.466,0-4.835L60.286,25.049   h0.027l-7.981-7.965c-1.325-1.341-3.412-1.341-4.766,0l-7.954,7.965l-21.548,21.66c-1.241,1.593-1.41,3.55-0.057,4.892l7.954,7.993   C26.611,60.265,27.485,60.6,28.331,60.6L28.331,60.6z"/></g><text x="0" y="115" fill="#000000" font-size="5px" font-weight="bold" font-family="'Helvetica Neue', Helvetica, Arial-Unicode, Arial, Sans-serif">Created by artworkbean</text><text x="0" y="120" fill="#000000" font-size="5px" font-weight="bold" font-family="'Helvetica Neue', Helvetica, Arial-Unicode, Arial, Sans-serif">from the Noun Project</text></svg>